<mxfile host="app.diagrams.net" modified="2021-03-12T20:40:31.348Z" agent="5.0 (Macintosh; Intel Mac OS X 10_15_7) AppleWebKit/537.36 (KHTML, like Gecko) Chrome/88.0.4324.192 Safari/537.36" etag="YfHPqcdi4ijK0pF-vJEG" version="14.4.8" type="github">
  <diagram id="0bHECz6gH4kT4osSvVDA" name="Page-1">
    <mxGraphModel dx="815" dy="472" grid="1" gridSize="10" guides="1" tooltips="1" connect="1" arrows="1" fold="1" page="1" pageScale="1" pageWidth="850" pageHeight="1100" background="#FFFFFF" math="0" shadow="0">
      <root>
        <mxCell id="0" />
        <mxCell id="1" parent="0" />
        <mxCell id="YQfu7MhCzdLPTRgZcDVn-2" value="" style="endArrow=classic;html=1;exitX=1;exitY=0.5;exitDx=0;exitDy=0;entryX=0;entryY=0.5;entryDx=0;entryDy=0;entryPerimeter=0;" edge="1" parent="1" target="YQfu7MhCzdLPTRgZcDVn-4">
          <mxGeometry width="50" height="50" relative="1" as="geometry">
            <mxPoint x="230" y="255" as="sourcePoint" />
            <mxPoint x="370" y="260" as="targetPoint" />
          </mxGeometry>
        </mxCell>
        <mxCell id="YQfu7MhCzdLPTRgZcDVn-3" value="Publish" style="text;html=1;strokeColor=none;fillColor=none;align=center;verticalAlign=middle;whiteSpace=wrap;rounded=0;" vertex="1" parent="1">
          <mxGeometry x="250" y="238" width="40" height="20" as="geometry" />
        </mxCell>
        <mxCell id="YQfu7MhCzdLPTRgZcDVn-4" value="Kafka Topic: Raw Events" style="shape=cylinder3;whiteSpace=wrap;html=1;boundedLbl=1;backgroundOutline=1;size=15;" vertex="1" parent="1">
          <mxGeometry x="320" y="202.5" width="70" height="105" as="geometry" />
        </mxCell>
        <mxCell id="YQfu7MhCzdLPTRgZcDVn-5" value="Raw event processor (Flink)" style="shape=process;whiteSpace=wrap;html=1;backgroundOutline=1;" vertex="1" parent="1">
          <mxGeometry x="490" y="228" width="120" height="60" as="geometry" />
        </mxCell>
        <mxCell id="YQfu7MhCzdLPTRgZcDVn-6" value="" style="endArrow=classic;html=1;exitX=0;exitY=0.5;exitDx=0;exitDy=0;entryX=1.023;entryY=0.529;entryDx=0;entryDy=0;entryPerimeter=0;" edge="1" parent="1" source="YQfu7MhCzdLPTRgZcDVn-5" target="YQfu7MhCzdLPTRgZcDVn-4">
          <mxGeometry width="50" height="50" relative="1" as="geometry">
            <mxPoint x="240" y="265" as="sourcePoint" />
            <mxPoint x="330" y="265" as="targetPoint" />
          </mxGeometry>
        </mxCell>
        <mxCell id="YQfu7MhCzdLPTRgZcDVn-7" value="Consume" style="text;html=1;strokeColor=none;fillColor=none;align=center;verticalAlign=middle;whiteSpace=wrap;rounded=0;" vertex="1" parent="1">
          <mxGeometry x="425" y="240" width="40" height="20" as="geometry" />
        </mxCell>
        <mxCell id="YQfu7MhCzdLPTRgZcDVn-8" value="Kafka Topic: Processed Events" style="shape=cylinder3;whiteSpace=wrap;html=1;boundedLbl=1;backgroundOutline=1;size=15;" vertex="1" parent="1">
          <mxGeometry x="700" y="206.5" width="70" height="103" as="geometry" />
        </mxCell>
        <mxCell id="YQfu7MhCzdLPTRgZcDVn-9" value="" style="endArrow=classic;html=1;exitX=1;exitY=0.5;exitDx=0;exitDy=0;entryX=0;entryY=0.5;entryDx=0;entryDy=0;entryPerimeter=0;" edge="1" parent="1" target="YQfu7MhCzdLPTRgZcDVn-8">
          <mxGeometry width="50" height="50" relative="1" as="geometry">
            <mxPoint x="610" y="258" as="sourcePoint" />
            <mxPoint x="700" y="258" as="targetPoint" />
          </mxGeometry>
        </mxCell>
        <mxCell id="YQfu7MhCzdLPTRgZcDVn-10" value="Publish" style="text;html=1;strokeColor=none;fillColor=none;align=center;verticalAlign=middle;whiteSpace=wrap;rounded=0;" vertex="1" parent="1">
          <mxGeometry x="630" y="238" width="40" height="20" as="geometry" />
        </mxCell>
        <mxCell id="YQfu7MhCzdLPTRgZcDVn-11" value="Webhook Publisher (worker)" style="shape=process;whiteSpace=wrap;html=1;backgroundOutline=1;" vertex="1" parent="1">
          <mxGeometry x="675" y="390" width="120" height="60" as="geometry" />
        </mxCell>
        <mxCell id="YQfu7MhCzdLPTRgZcDVn-12" value="Consume" style="text;html=1;align=center;verticalAlign=middle;whiteSpace=wrap;rounded=0;" vertex="1" parent="1">
          <mxGeometry x="715" y="340" width="40" height="20" as="geometry" />
        </mxCell>
        <mxCell id="YQfu7MhCzdLPTRgZcDVn-13" value="" style="endArrow=classic;html=1;exitX=0.5;exitY=0;exitDx=0;exitDy=0;entryX=0.5;entryY=1;entryDx=0;entryDy=0;entryPerimeter=0;" edge="1" parent="1" source="YQfu7MhCzdLPTRgZcDVn-11" target="YQfu7MhCzdLPTRgZcDVn-8">
          <mxGeometry width="50" height="50" relative="1" as="geometry">
            <mxPoint x="500" y="268" as="sourcePoint" />
            <mxPoint x="401.61" y="268.04499999999996" as="targetPoint" />
          </mxGeometry>
        </mxCell>
        <mxCell id="YQfu7MhCzdLPTRgZcDVn-14" value="Merchant App Service" style="rounded=1;whiteSpace=wrap;html=1;" vertex="1" parent="1">
          <mxGeometry x="410" y="390" width="120" height="60" as="geometry" />
        </mxCell>
        <mxCell id="YQfu7MhCzdLPTRgZcDVn-18" value="" style="edgeStyle=orthogonalEdgeStyle;rounded=0;orthogonalLoop=1;jettySize=auto;html=1;exitX=1;exitY=0.5;exitDx=0;exitDy=0;" edge="1" parent="1" source="YQfu7MhCzdLPTRgZcDVn-17" target="YQfu7MhCzdLPTRgZcDVn-4">
          <mxGeometry relative="1" as="geometry" />
        </mxCell>
        <mxCell id="YQfu7MhCzdLPTRgZcDVn-17" value="&lt;span&gt;Event publisher (clroot)&lt;/span&gt;" style="rounded=1;whiteSpace=wrap;html=1;" vertex="1" parent="1">
          <mxGeometry x="110" y="225" width="120" height="60" as="geometry" />
        </mxCell>
        <mxCell id="YQfu7MhCzdLPTRgZcDVn-19" value="" style="endArrow=classic;html=1;entryX=1;entryY=0.5;entryDx=0;entryDy=0;exitX=0;exitY=0.5;exitDx=0;exitDy=0;" edge="1" parent="1" source="YQfu7MhCzdLPTRgZcDVn-11" target="YQfu7MhCzdLPTRgZcDVn-14">
          <mxGeometry width="50" height="50" relative="1" as="geometry">
            <mxPoint x="670" y="420" as="sourcePoint" />
            <mxPoint x="500" y="310" as="targetPoint" />
          </mxGeometry>
        </mxCell>
        <mxCell id="YQfu7MhCzdLPTRgZcDVn-20" value="Get subscription" style="text;html=1;strokeColor=none;fillColor=none;align=center;verticalAlign=middle;whiteSpace=wrap;rounded=0;" vertex="1" parent="1">
          <mxGeometry x="550" y="400" width="100" height="20" as="geometry" />
        </mxCell>
        <mxCell id="YQfu7MhCzdLPTRgZcDVn-22" value="Clroot" style="rounded=1;whiteSpace=wrap;html=1;" vertex="1" parent="1">
          <mxGeometry x="140" y="390" width="120" height="60" as="geometry" />
        </mxCell>
        <mxCell id="YQfu7MhCzdLPTRgZcDVn-23" value="" style="endArrow=classic;html=1;exitX=1;exitY=0.5;exitDx=0;exitDy=0;" edge="1" parent="1" source="YQfu7MhCzdLPTRgZcDVn-22" target="YQfu7MhCzdLPTRgZcDVn-14">
          <mxGeometry width="50" height="50" relative="1" as="geometry">
            <mxPoint x="370" y="410" as="sourcePoint" />
            <mxPoint x="420" y="360" as="targetPoint" />
          </mxGeometry>
        </mxCell>
        <mxCell id="YQfu7MhCzdLPTRgZcDVn-24" value="Manage subscriptions" style="text;html=1;strokeColor=none;fillColor=none;align=center;verticalAlign=middle;whiteSpace=wrap;rounded=0;" vertex="1" parent="1">
          <mxGeometry x="270" y="420" width="120" height="20" as="geometry" />
        </mxCell>
        <mxCell id="YQfu7MhCzdLPTRgZcDVn-26" value="List topics" style="text;html=1;strokeColor=none;fillColor=none;align=center;verticalAlign=middle;whiteSpace=wrap;rounded=0;" vertex="1" parent="1">
          <mxGeometry x="290" y="400" width="70" height="20" as="geometry" />
        </mxCell>
        <mxCell id="YQfu7MhCzdLPTRgZcDVn-27" value="API user webhook server" style="rounded=1;whiteSpace=wrap;html=1;" vertex="1" parent="1">
          <mxGeometry x="465" y="560" width="120" height="60" as="geometry" />
        </mxCell>
        <mxCell id="YQfu7MhCzdLPTRgZcDVn-28" value="Kafka Topic: Error Queue" style="shape=cylinder3;whiteSpace=wrap;html=1;boundedLbl=1;backgroundOutline=1;size=15;" vertex="1" parent="1">
          <mxGeometry x="700" y="520" width="70" height="100" as="geometry" />
        </mxCell>
        <mxCell id="YQfu7MhCzdLPTRgZcDVn-32" value="" style="endArrow=classic;html=1;entryX=0.5;entryY=0;entryDx=0;entryDy=0;entryPerimeter=0;exitX=0.5;exitY=1;exitDx=0;exitDy=0;" edge="1" parent="1" source="YQfu7MhCzdLPTRgZcDVn-11" target="YQfu7MhCzdLPTRgZcDVn-28">
          <mxGeometry width="50" height="50" relative="1" as="geometry">
            <mxPoint x="550" y="520" as="sourcePoint" />
            <mxPoint x="750" y="540" as="targetPoint" />
          </mxGeometry>
        </mxCell>
        <mxCell id="YQfu7MhCzdLPTRgZcDVn-35" value="Webhook Publisher (retrier)" style="shape=process;whiteSpace=wrap;html=1;backgroundOutline=1;labelBackgroundColor=none;gradientColor=none;fillColor=none;" vertex="1" parent="1">
          <mxGeometry x="675" y="680" width="120" height="60" as="geometry" />
        </mxCell>
        <mxCell id="YQfu7MhCzdLPTRgZcDVn-36" value="" style="endArrow=classic;html=1;exitX=0.5;exitY=0;exitDx=0;exitDy=0;entryX=0.5;entryY=1;entryDx=0;entryDy=0;entryPerimeter=0;" edge="1" parent="1" source="YQfu7MhCzdLPTRgZcDVn-37" target="YQfu7MhCzdLPTRgZcDVn-28">
          <mxGeometry width="50" height="50" relative="1" as="geometry">
            <mxPoint x="550" y="560" as="sourcePoint" />
            <mxPoint x="735" y="653" as="targetPoint" />
          </mxGeometry>
        </mxCell>
        <mxCell id="YQfu7MhCzdLPTRgZcDVn-38" value="" style="endArrow=classic;html=1;entryX=0.5;entryY=1;entryDx=0;entryDy=0;exitX=0;exitY=0.5;exitDx=0;exitDy=0;" edge="1" parent="1" source="YQfu7MhCzdLPTRgZcDVn-35" target="YQfu7MhCzdLPTRgZcDVn-27">
          <mxGeometry width="50" height="50" relative="1" as="geometry">
            <mxPoint x="610" y="530" as="sourcePoint" />
            <mxPoint x="610" y="680" as="targetPoint" />
            <Array as="points">
              <mxPoint x="525" y="710" />
            </Array>
          </mxGeometry>
        </mxCell>
        <mxCell id="YQfu7MhCzdLPTRgZcDVn-39" value="Publish" style="text;html=1;strokeColor=none;fillColor=none;align=center;verticalAlign=middle;whiteSpace=wrap;rounded=0;labelBackgroundColor=none;" vertex="1" parent="1">
          <mxGeometry x="585" y="710" width="40" height="20" as="geometry" />
        </mxCell>
        <mxCell id="YQfu7MhCzdLPTRgZcDVn-30" value="Publish" style="text;html=1;strokeColor=none;align=center;verticalAlign=middle;whiteSpace=wrap;rounded=0;labelBackgroundColor=none;fillColor=#FFFFFF;opacity=0;shadow=0;" vertex="1" parent="1">
          <mxGeometry x="715" y="480" width="40" height="20" as="geometry" />
        </mxCell>
        <mxCell id="YQfu7MhCzdLPTRgZcDVn-40" value="" style="endArrow=classic;html=1;entryX=0.5;entryY=0;entryDx=0;entryDy=0;exitX=0;exitY=0.75;exitDx=0;exitDy=0;" edge="1" parent="1" source="YQfu7MhCzdLPTRgZcDVn-11" target="YQfu7MhCzdLPTRgZcDVn-27">
          <mxGeometry width="50" height="50" relative="1" as="geometry">
            <mxPoint x="440" y="570" as="sourcePoint" />
            <mxPoint x="490" y="520" as="targetPoint" />
            <Array as="points">
              <mxPoint x="525" y="480" />
            </Array>
          </mxGeometry>
        </mxCell>
        <mxCell id="YQfu7MhCzdLPTRgZcDVn-37" value="Consume" style="text;html=1;strokeColor=none;fillColor=none;align=center;verticalAlign=middle;whiteSpace=wrap;rounded=0;" vertex="1" parent="1">
          <mxGeometry x="715" y="640" width="40" height="20" as="geometry" />
        </mxCell>
        <mxCell id="YQfu7MhCzdLPTRgZcDVn-49" value="" style="endArrow=none;html=1;entryX=0.5;entryY=1;entryDx=0;entryDy=0;" edge="1" parent="1" source="YQfu7MhCzdLPTRgZcDVn-35" target="YQfu7MhCzdLPTRgZcDVn-37">
          <mxGeometry width="50" height="50" relative="1" as="geometry">
            <mxPoint x="240" y="670" as="sourcePoint" />
            <mxPoint x="290" y="620" as="targetPoint" />
          </mxGeometry>
        </mxCell>
        <mxCell id="YQfu7MhCzdLPTRgZcDVn-50" value="Publish" style="text;html=1;strokeColor=none;fillColor=none;align=center;verticalAlign=middle;whiteSpace=wrap;rounded=0;shadow=0;labelBackgroundColor=none;" vertex="1" parent="1">
          <mxGeometry x="550" y="470" width="40" height="20" as="geometry" />
        </mxCell>
      </root>
    </mxGraphModel>
  </diagram>
</mxfile>
